<svg width="72" height="72" viewBox="0 0 72 72" fill="none" xmlns="http://www.w3.org/2000/svg">
<g clip-path="url(#clip0)">
<path fill-rule="evenodd" clip-rule="evenodd" d="M29.9444 44.5124C33.6868 42.0677 39.4893 40 48 40C61.1695 40 67.8546 44.9511 70.4555 48.5887C70.8337 49.1175 71 49.7252 71 50.3028V55C71 56.6569 69.6569 58 68 58H46L46 59C46 60.6569 44.6569 62 43 62H3.00001C1.34316 62 7.62939e-06 60.6569 7.62939e-06 59V54.3028C7.62939e-06 53.7252 0.166337 53.1175 0.544486 52.5887C3.14545 48.9511 9.83047 44 23 44C25.5526 44 27.8616 44.186 29.9444 44.5124ZM67 54H45.9848C45.9359 53.5167 45.7681 53.0258 45.4555 52.5887C43.8961 50.4078 40.8688 47.7548 35.8561 45.9797C38.817 44.8359 42.7819 44 48 44C59.6856 44 65.0867 48.1923 67 50.6455V54ZM4.00001 58V54.6455C5.91331 52.1923 11.3144 48 23 48C34.6856 48 40.0867 52.1923 42 54.6455V58H4.00001Z" fill="#444444"/>
<path fill-rule="evenodd" clip-rule="evenodd" d="M48 18C44.134 18 41 21.134 41 25C41 28.866 44.134 32 48 32C51.866 32 55 28.866 55 25C55 21.134 51.866 18 48 18ZM37 25C37 18.9249 41.9249 14 48 14C54.0751 14 59 18.9249 59 25C59 31.0751 54.0751 36 48 36C41.9249 36 37 31.0751 37 25Z" fill="#444444"/>
<path fill-rule="evenodd" clip-rule="evenodd" d="M23 22C19.134 22 16 25.134 16 29C16 32.866 19.134 36 23 36C26.866 36 30 32.866 30 29C30 25.134 26.866 22 23 22ZM12 29C12 22.9249 16.9249 18 23 18C29.0751 18 34 22.9249 34 29C34 35.0751 29.0751 40 23 40C16.9249 40 12 35.0751 12 29Z" fill="#444444"/>
</g>
<defs>
<clipPath id="clip0">
<rect width="72" height="72" fill="white"/>
</clipPath>
</defs>
</svg>
