<svg width="72" height="72" viewBox="0 0 72 72" fill="none" xmlns="http://www.w3.org/2000/svg">
<g clip-path="url(#clip0)">
<path fill-rule="evenodd" clip-rule="evenodd" d="M52.3485 38.686C52.3773 38.462 52.3989 38.238 52.3989 38C52.3989 37.762 52.3773 37.538 52.3485 37.314L53.8669 36.159C54.0037 36.054 54.0396 35.865 53.9533 35.711L52.514 33.289C52.4492 33.177 52.3269 33.114 52.1974 33.114C52.1542 33.114 52.111 33.121 52.075 33.135L50.2831 33.835C49.9089 33.555 49.5059 33.324 49.0669 33.149L48.7935 31.294C48.7719 31.126 48.6208 31 48.4409 31H45.5623C45.3824 31 45.2313 31.126 45.2097 31.294L44.9362 33.149C44.4973 33.324 44.0943 33.562 43.72 33.835L41.9281 33.135C41.885 33.121 41.8418 33.114 41.7986 33.114C41.6763 33.114 41.5539 33.177 41.4892 33.289L40.0499 35.711C39.9563 35.865 39.9995 36.054 40.1362 36.159L41.6547 37.314C41.6259 37.538 41.6043 37.769 41.6043 38C41.6043 38.231 41.6259 38.462 41.6547 38.686L40.1362 39.841C39.9995 39.946 39.9635 40.135 40.0499 40.289L41.4892 42.711C41.5539 42.823 41.6763 42.886 41.8058 42.886C41.849 42.886 41.8922 42.879 41.9281 42.865L43.72 42.165C44.0943 42.445 44.4973 42.676 44.9362 42.851L45.2097 44.706C45.2313 44.874 45.3824 45 45.5623 45H48.4409C48.6208 45 48.7719 44.874 48.7935 44.706L49.0669 42.851C49.5059 42.676 49.9089 42.438 50.2831 42.165L52.075 42.865C52.1182 42.879 52.1614 42.886 52.2046 42.886C52.3269 42.886 52.4492 42.823 52.514 42.711L53.9533 40.289C54.0396 40.135 54.0037 39.946 53.8669 39.841L52.3485 38.686ZM47 40C48.1046 40 49 39.1046 49 38C49 36.8954 48.1046 36 47 36C45.8954 36 45 36.8954 45 38C45 39.1046 45.8954 40 47 40Z" fill="#444444"/>
<path fill-rule="evenodd" clip-rule="evenodd" d="M63.5 20.5C63.5 22.9853 61.4853 25 59 25C56.5147 25 54.5 22.9853 54.5 20.5C54.5 18.0147 56.5147 16 59 16C61.4853 16 63.5 18.0147 63.5 20.5ZM60.7 20.5C60.7 21.4389 59.9389 22.2 59 22.2C58.0611 22.2 57.3 21.4389 57.3 20.5C57.3 19.5611 58.0611 18.8 59 18.8C59.9389 18.8 60.7 19.5611 60.7 20.5Z" fill="#444444"/>
<path fill-rule="evenodd" clip-rule="evenodd" d="M68.5028 12.1961L70.8499 16.3189L70.8534 16.3254C71.1205 16.8226 71.0225 17.4633 70.5606 17.8336L70.5584 17.8353L68.3427 19.5945C68.3719 19.8841 68.3917 20.1839 68.3917 20.5C68.3917 20.8161 68.3719 21.1159 68.3427 21.4055L70.5606 23.1664C71.0225 23.5367 71.1205 24.1774 70.8534 24.6746L70.8499 24.6811L68.5028 28.8038C68.2873 29.1898 67.8848 29.4048 67.48 29.4048C67.3413 29.4048 67.2066 29.3811 67.0783 29.3377L67.0611 29.3318L64.4342 28.2607C63.96 28.6004 63.4537 28.9077 62.9109 29.1609L62.5122 31.9837C62.4365 32.5731 61.9308 33 61.3479 33H56.6579C56.075 33 55.5693 32.5731 55.4936 31.9837L55.095 29.1615C54.5542 28.9112 54.0468 28.6094 53.5683 28.262L50.9614 29.325C50.8187 29.383 50.6692 29.4048 50.5375 29.4048C50.1277 29.4048 49.7216 29.1953 49.503 28.8039L47.1559 24.6811L47.1524 24.6746C46.8853 24.1774 46.9833 23.5367 47.4452 23.1665L47.4473 23.1647L49.6632 21.4054C49.634 21.1122 49.6141 20.808 49.6141 20.5C49.6141 20.192 49.634 19.8878 49.6632 19.5946L47.4473 17.8353L47.4452 17.8336C47.0002 17.4769 46.8577 16.8342 47.1607 16.3105L49.5031 12.196C49.7186 11.8102 50.121 11.5952 50.5257 11.5952C50.6645 11.5952 50.7992 11.6189 50.9275 11.6623L50.9446 11.6682L53.5716 12.7393C54.0457 12.3996 54.552 12.0923 55.0949 11.8391L55.4936 9.0163C55.5693 8.42691 56.075 8 56.6579 8H61.3479C61.9308 8 62.4365 8.42689 62.5122 9.01626L62.9108 11.8385C63.4516 12.0888 63.959 12.3906 64.4375 12.738L67.0444 11.675C67.187 11.6171 67.3365 11.5952 67.4683 11.5952C67.8781 11.5952 68.2842 11.8047 68.5028 12.1961ZM65.393 19.6309C65.4399 20 65.4516 20.25 65.4516 20.5C65.4516 20.75 65.4281 21.0119 65.393 21.369L65.2964 22.1601C65.2544 22.5045 65.3939 22.8461 65.6651 23.0626L66.2724 23.5476L67.5387 24.5476L66.7179 25.9881L65.2288 25.3809L64.5414 25.099C64.212 24.964 63.8357 25.0142 63.5533 25.2309L62.9542 25.6905C62.45 26.0714 61.9693 26.3571 61.4886 26.5595L60.7761 26.853C60.4476 26.9883 60.2156 27.2876 60.1665 27.6395L60.0581 28.4166L59.8236 30.0238H58.1821L57.8508 27.6398C57.8018 27.2878 57.5697 26.9882 57.2411 26.8528L56.5289 26.5595C56.0247 26.3452 55.5557 26.0714 55.0867 25.7143L54.4782 25.239C54.1948 25.0177 53.8144 24.9655 53.4819 25.1025L52.7769 25.3928L51.2878 26L50.4671 24.5595L51.7334 23.5595L52.3407 23.0745C52.6118 22.858 52.7513 22.5164 52.7093 22.172L52.6128 21.3809C52.5776 21.0119 52.5541 20.7381 52.5541 20.5C52.5541 20.2619 52.5776 19.9881 52.6128 19.6309L52.7093 18.8399C52.7513 18.4954 52.6118 18.1538 52.3407 17.9373L51.7334 17.4524L50.4671 16.4524L51.2878 15.0119L52.7769 15.619L53.4644 15.9009C53.7937 16.036 54.17 15.9858 54.4524 15.7691L55.0516 15.3095C55.5557 14.9285 56.0365 14.6428 56.5172 14.4405L57.2297 14.147C57.5581 14.0117 57.7902 13.7123 57.8392 13.3605L57.9476 12.5833L58.1821 10.9762H59.8119L60.1433 13.3601C60.1922 13.7122 60.4243 14.0118 60.7529 14.1471L61.4651 14.4405C61.9693 14.6547 62.4383 14.9285 62.9073 15.2857L63.5158 15.7609C63.7992 15.9823 64.1796 16.0344 64.5122 15.8975L65.2171 15.6071L66.7062 15L67.5269 16.4405L66.2724 17.4524L65.6651 17.9373C65.3939 18.1538 65.2544 18.4954 65.2964 18.8399L65.393 19.6309Z" fill="#444444"/>
<path fill-rule="evenodd" clip-rule="evenodd" d="M4 56.6455V60H42V56.6455C40.0867 54.1923 34.6856 50 23 50C11.3144 50 5.9133 54.1923 4 56.6455ZM0.544478 54.5887C3.14544 50.9511 9.83046 46 23 46C36.1695 46 42.8546 50.9511 45.4555 54.5887C45.8337 55.1175 46 55.7252 46 56.3028V61C46 62.6569 44.6569 64 43 64H3C1.34315 64 0 62.6569 0 61V56.3028C0 55.7252 0.16633 55.1175 0.544478 54.5887Z" fill="#444444"/>
<path fill-rule="evenodd" clip-rule="evenodd" d="M25 23.5C25 23.7761 25.2238 24 25.5 24H27.5C27.7761 24 28 23.7761 28 23.5V18.1409C31.7054 19.9326 34.3034 23.6539 34.4893 28H35.5C35.7761 28 36 28.2238 36 28.5V30.5C36 30.7761 35.7761 31 35.5 31H34C34 37.0751 29.0751 42 23 42C16.9248 42 12 37.0751 12 31H10.5C10.2238 31 9.99998 30.7761 9.99998 30.5V28.5C9.99998 28.2238 10.2238 28 10.5 28H11.5107C11.6966 23.6539 14.2946 19.9326 18 18.1409V23.5C18 23.7761 18.2238 24 18.5 24H20.5C20.7761 24 21 23.7761 21 23.5V17.1733C21.6495 17.0594 22.3178 17 23 17C23.6821 17 24.3504 17.0594 25 17.1733V23.5ZM16 31C16 34.866 19.134 38 23 38C26.866 38 30 34.866 30 31H16Z" fill="#444444"/>
</g>
<defs>
<clipPath id="clip0">
<rect width="72" height="72" fill="white"/>
</clipPath>
</defs>
</svg>
