<svg width="72" height="72" viewBox="0 0 72 72" fill="none" xmlns="http://www.w3.org/2000/svg">
<path fill-rule="evenodd" clip-rule="evenodd" d="M40 28H47C48.6569 28 50 29.3431 50 31V61C50 62.6569 48.6569 64 47 64H3C1.34314 64 0 62.6569 0 61V31C0 29.3431 1.34315 28 3 28H10V23C10 14.7157 16.7157 8 25 8C33.2843 8 40 14.7157 40 23V28ZM14 28V23C14 16.9249 18.9249 12 25 12C31.0751 12 36 16.9249 36 23V28H14ZM4 60V32H46V60H4Z" fill="#444444"/>
<path d="M23.9892 52.0039V40.4844L20.662 41.5932C20.3382 41.7011 20.0039 41.4601 20.0039 41.1188V38.1933C20.0039 37.9991 20.1163 37.8225 20.2923 37.7403L26.7988 34.7004C26.9313 34.6385 27.0758 34.6064 27.2221 34.6064H27.4961C27.7722 34.6064 27.9961 34.8302 27.9961 35.1064V52.0039H30.9993C31.2754 52.0039 31.4993 52.2278 31.4993 52.5039V55.502C31.4993 55.7782 31.2754 56.002 30.9993 56.002H20.507C20.2308 56.002 20.007 55.7782 20.007 55.502V52.5039C20.007 52.2278 20.2308 52.0039 20.507 52.0039H23.9892Z" fill="#444444"/>
</svg>
