<svg width="72" height="72" viewBox="0 0 72 72" fill="none" xmlns="http://www.w3.org/2000/svg">
<g clip-path="url(#clip0)">
<path fill-rule="evenodd" clip-rule="evenodd" d="M25.6594 4.51367C26.4368 3.8693 27.5632 3.8693 28.3406 4.51367C36.4094 11.2015 47.1011 12.856 48.1801 13.0063C49.4386 13.1817 50.103 14.3322 49.9689 15.3585C49.9323 15.6386 49.8139 16.8389 50.1471 18.1109C50.4653 19.3255 51.1476 20.4789 52.6728 21.1145C53.6878 21.5376 54.2536 22.715 53.8272 23.8168C53.6735 24.2138 52.4385 27.6043 51.9965 35.1175C51.9622 35.7007 51.9384 36.3057 51.9138 36.9308C51.769 40.6139 51.5966 44.9951 49.0854 49.7333C46.1406 55.2898 40.1379 61.1511 28.0023 67.7317C27.3779 68.0702 26.6221 68.0702 25.9977 67.7317C13.862 61.1511 7.85942 55.2898 4.91454 49.7333C2.40336 44.9951 2.23103 40.6139 2.08615 36.9308C2.06156 36.3057 2.03776 35.7007 2.00345 35.1175C1.5615 27.6043 0.326458 24.2138 0.172837 23.8168C-0.253584 22.715 0.312163 21.5376 1.32721 21.1145C2.85235 20.4789 3.53464 19.3255 3.85285 18.1109C4.18611 16.8389 4.06767 15.6386 4.03108 15.3585C3.897 14.3322 4.56136 13.1817 5.81992 13.0063C6.89888 12.856 17.5906 11.2015 25.6594 4.51367ZM27 8.55238C19.9468 13.8824 11.6602 15.9758 8.07367 16.6767C8.04796 17.3882 7.95501 18.2363 7.72226 19.1247C7.2886 20.7799 6.33929 22.6542 4.41446 23.9709C4.93807 25.8735 5.67325 29.3866 5.99655 34.8826C6.03672 35.5656 6.0652 36.2363 6.09334 36.899C6.24898 40.5641 6.39416 43.9833 8.44885 47.8602C10.8049 52.3057 15.8224 57.5312 27 63.7198C38.1775 57.5312 43.1951 52.3057 45.5511 47.8602C47.6058 43.9833 47.751 40.5641 47.9066 36.899C47.9348 36.2363 47.9633 35.5656 48.0034 34.8826C48.3267 29.3866 49.0619 25.8735 49.5855 23.9709C47.6607 22.6542 46.7114 20.7799 46.2777 19.1247C46.045 18.2363 45.952 17.3882 45.9263 16.6767C42.3398 15.9758 34.0532 13.8824 27 8.55238Z" fill="#444444"/>
<path fill-rule="evenodd" clip-rule="evenodd" d="M44.0728 26.0485C44.2703 26.2415 44.2739 26.558 44.0809 26.7555L23.2941 48.0257C22.3017 49.0413 20.6636 49.0273 19.6886 47.9949L11.8893 39.7368C11.6997 39.5361 11.7087 39.2196 11.9095 39.03L14.0905 36.9701C14.2913 36.7805 14.6077 36.7896 14.7973 36.9903L21.5246 44.1133L41.2202 23.9598C41.4132 23.7623 41.7297 23.7587 41.9272 23.9517L44.0728 26.0485Z" fill="#444444"/>
</g>
<defs>
<clipPath id="clip0">
<rect width="72" height="72" fill="white"/>
</clipPath>
</defs>
</svg>
