<svg width="72" height="72" viewBox="0 0 72 72" fill="none" xmlns="http://www.w3.org/2000/svg">
<g clip-path="url(#clip0)">
<path fill-rule="evenodd" clip-rule="evenodd" d="M12.1896 8.79299C11.018 7.62141 9.11851 7.62141 7.94694 8.79299L0.875872 15.8641C-0.295701 17.0356 -0.295701 18.9351 0.875872 20.1067L16.8153 36.0461L1.37107 51.4903C0.824424 52.0369 0.479966 52.7825 0.451505 53.588L0.174295 61.4338C0.123237 62.8789 1.29611 64.0517 2.7412 64.0007L10.587 63.7235C11.3925 63.6951 12.1381 63.3506 12.6848 62.804L28.129 47.3598L44.0094 63.2402C45.181 64.4118 47.0805 64.4118 48.252 63.2402L55.3231 56.1691C56.4947 54.9976 56.4947 53.0981 55.3231 51.9265L39.4427 36.0461L55.2846 20.2041C56.3796 19.1092 56.6206 17.1788 55.3439 15.9022L48.2729 8.8311C46.9962 7.55443 45.0658 7.79551 43.9709 8.89042L28.129 24.7324L12.1896 8.79299ZM25.3005 27.5608L21.0414 23.3016L18.5664 25.7766C18.3711 25.9719 18.0545 25.9719 17.8593 25.7766L16.2622 24.1795C16.0669 23.9843 16.0669 23.6677 16.2622 23.4724L18.7372 20.9974L15.5542 17.8144L13.0792 20.2894C12.8839 20.4847 12.5673 20.4847 12.3721 20.2894L10.775 18.6924C10.5797 18.4971 10.5797 18.1805 10.775 17.9852L13.25 15.5102L10.0683 12.3285L4.41141 17.9854L19.6437 33.2177L25.3005 27.5608ZM36.6142 38.8745L30.9574 44.5314L46.1307 59.7047L51.7876 54.0478L48.6034 50.8636L46.1285 53.3385C45.9332 53.5338 45.6166 53.5338 45.4214 53.3385L43.8243 51.7414C43.629 51.5462 43.629 51.2296 43.8243 51.0343L46.2992 48.5594L43.1172 45.3774L40.6423 47.8523C40.4471 48.0476 40.1305 48.0476 39.9352 47.8523L38.3382 46.2552C38.1429 46.06 38.1429 45.7434 38.3382 45.5481L40.813 43.0732L36.6142 38.8745ZM4.22937 59.9456L4.43656 54.0816L37.7705 20.7476L43.4274 26.4045L10.0934 59.7385L4.22937 59.9456ZM46.2558 23.5761L40.599 17.9192L46.1516 12.3666L51.8084 18.0235L46.2558 23.5761Z" fill="#444444"/>
</g>
<defs>
<clipPath id="clip0">
<rect width="72" height="72" fill="white"/>
</clipPath>
</defs>
</svg>
