<svg width="72" height="72" viewBox="0 0 72 72" fill="none" xmlns="http://www.w3.org/2000/svg">
<path fill-rule="evenodd" clip-rule="evenodd" d="M42.2246 12.9882C42.958 9.07664 38.1506 6.61029 35.4011 9.48762L18.831 26.8284C18.2976 27.3866 18 28.1289 18 28.901V61C18 62.6569 19.3431 64 21 64H50.3444C51.5387 64 52.6193 63.2915 53.0956 62.1962L62.7512 39.9882C62.9153 39.6108 63 39.2036 63 38.792V31C63 29.3432 61.6569 28 60 28H39.4099L42.2246 12.9882ZM22 29.3019L38.2931 12.2511L35.2563 28.4472C34.9101 30.2934 36.3265 32 38.2049 32H59V38.5841L49.6887 60H22V29.3019Z" fill="#444444"/>
<path fill-rule="evenodd" clip-rule="evenodd" d="M3 30C1.34314 30 0 31.3431 0 33V61C0 62.6569 1.34314 64 3 64H12C13.6569 64 15 62.6569 15 61V33C15 31.3431 13.6569 30 12 30H3ZM4 60V34H11V60H4Z" fill="#444444"/>
</svg>
