<svg width="162" height="192" viewBox="0 0 162 192" fill="none" xmlns="http://www.w3.org/2000/svg">
<path opacity="0.24" fill-rule="evenodd" clip-rule="evenodd" d="M80.8944 12.3838C73.7898 17.3024 63.9525 24.0427 51.0184 28.7792C38.813 33.1512 26.6076 35.8838 22.782 36.7947C22.2355 36.9768 21.689 36.7947 21.689 36.9768C22.4177 50.6396 17.6812 50.4574 11.4874 54.4652C11.3053 54.6474 10.7588 54.6474 10.7588 54.8295C12.3983 58.8373 14.5843 62.845 15.1308 71.9536C16.0417 87.9846 14.7665 114.581 21.3246 129.155C28.7936 145.733 51.2006 163.585 68.1425 173.058C72.6967 175.609 78.8905 178.706 81.0766 179.799C83.2626 178.706 89.4564 175.609 94.0107 173.058C110.953 163.585 133.177 145.915 140.829 129.155C147.387 114.581 146.111 88.1668 147.022 71.9536C147.569 62.845 149.755 58.8373 151.212 54.8295C151.212 54.6474 150.848 54.4652 150.484 54.4652C144.108 50.4574 139.553 50.6396 140.282 36.9768C140.282 36.7947 139.735 36.7947 139.189 36.7947C135.363 36.066 123.158 33.3334 110.953 28.7792C98.0184 24.0427 87.9991 17.3024 80.8944 12.3838ZM80.8944 2.72876C72.8789 8.19388 61.9487 15.845 47.7394 20.9458C34.0766 25.8644 20.596 28.9613 16.2239 29.8722C15.6774 30.0543 14.9487 29.8722 14.9487 30.0543C15.6774 45.1745 10.5766 44.9923 3.47193 49.5466C3.28976 49.7288 2.74325 49.7288 2.74325 50.0931C4.38278 54.6474 6.93317 59.0195 7.47968 69.221C8.5727 87.0737 7.11534 116.585 14.4022 132.981C22.782 151.38 47.7394 171.237 66.6851 181.802C71.7859 184.717 78.7084 187.996 81.0766 189.271C83.4448 187.996 90.3673 184.717 95.468 181.802C114.232 171.237 139.189 151.38 147.569 132.799C154.856 116.585 153.58 87.0737 154.491 69.0388C155.038 58.8373 157.588 54.283 159.228 49.9109C159.41 49.7288 158.681 49.5466 158.499 49.3644C151.394 44.8102 146.294 45.1745 147.022 29.8722C147.022 29.69 146.294 29.69 145.747 29.69C141.375 28.7792 127.712 25.6823 114.232 20.7636C99.8401 15.845 88.9099 8.19388 80.8944 2.72876Z" fill="#444444"/>
<path opacity="0.32" d="M80.8152 21.9113L80.8944 21.8569C87.2704 26.4112 96.0145 32.2407 107.673 36.6127C118.422 40.6205 129.17 42.9887 132.631 43.7174C132.995 43.7174 133.542 43.7174 133.542 43.8996C133.085 53.9444 135.807 55.4701 140.009 57.8248C140.836 58.2886 141.721 58.7845 142.65 59.3841C142.73 59.4639 142.845 59.5088 142.949 59.5493C143.082 59.6012 143.197 59.6461 143.197 59.7484C143.075 60.0372 142.951 60.3272 142.825 60.6209C141.444 63.848 139.872 67.5218 139.371 74.8686C139.211 77.9907 139.139 81.5613 139.062 85.3699C138.789 98.8948 138.455 115.42 133.906 125.512C127.348 140.268 107.491 155.934 92.5533 164.314C88.5456 166.682 83.0804 169.415 81.2587 170.326C80.2577 169.725 78.1565 168.63 75.8015 167.402C73.8708 166.395 71.7696 165.299 69.9642 164.314V149.194C72.1502 150.651 74.1541 151.927 76.158 153.02C76.9777 153.475 77.843 153.931 78.7083 154.386C79.5737 154.841 80.439 155.297 81.2587 155.752C82.0785 155.297 82.9438 154.841 83.8091 154.386C84.6744 153.931 85.5397 153.475 86.3595 153.02C97.8363 146.462 116.782 132.252 122.247 120.047C125.671 112.24 126.006 96.8132 126.271 84.605C126.359 80.5753 126.438 76.8963 126.619 73.9577C126.801 70.3143 127.166 67.5817 127.894 64.8492C124.433 61.7523 122.429 58.1089 121.518 54.1011C115.325 52.4616 109.131 50.6399 103.119 48.4538C95.1037 45.5391 87.999 41.7135 81.0766 37.3414C74.1541 41.7135 67.0494 45.5391 59.0339 48.4538C53.0223 50.6399 46.8285 52.4616 40.6347 54.1011C39.5417 58.1089 37.72 61.7523 34.2587 64.8492C34.9874 67.5817 35.3518 70.3143 35.5339 73.9577C35.6538 76.5546 35.7035 79.7298 35.7581 83.2142C35.9525 95.6179 36.2083 111.94 39.906 120.047C41.5331 123.708 44.3226 127.514 47.7394 131.222V92.5391H94.7393C94.896 92.5391 95.0487 92.5393 95.1975 92.5395C99.5469 92.5452 100.569 92.5465 100.569 87.4383V81.2445C100.569 77.4189 98.3828 77.0546 95.468 77.0546H47.9215V65.5779H98.5649C106.216 65.5779 114.049 66.6709 113.685 77.0546V92.5391C113.685 98.7329 109.677 102.741 103.484 102.741C96.6748 102.741 89.8207 102.786 82.944 102.831C76.0216 102.877 69.0762 102.923 62.1308 102.923V143.957C62.1916 144.003 62.2523 144.048 62.313 144.093V159.76C48.6502 151.016 33.7122 137.717 28.0649 125.33C23.6696 115.578 23.3132 99.819 23.0135 86.5649C22.9157 82.2402 22.8239 78.1821 22.5998 74.6864C22.146 68.031 20.6875 64.3898 19.4756 61.3643C19.228 60.7461 18.9906 60.1535 18.7742 59.5662C18.7742 59.3326 18.9989 59.2488 19.2081 59.1707C19.3252 59.127 19.4375 59.0851 19.5029 59.0197C20.4322 58.4202 21.317 57.9243 22.1445 57.4605C26.3458 55.1058 29.068 53.5801 28.6114 43.5352C28.5204 43.4441 28.6114 43.4441 28.7936 43.4441C28.9758 43.4441 29.249 43.4441 29.5223 43.3531C32.8014 42.6244 43.7316 40.074 54.4797 36.2484C65.7275 32.2572 74.4461 26.2787 80.8152 21.9113Z" fill="#444444"/>
</svg>
