<svg width="27" height="32" viewBox="0 0 27 32" fill="none" xmlns="http://www.w3.org/2000/svg">
<path fill-rule="evenodd" clip-rule="evenodd" d="M13.482 1.64341C12.2727 2.48062 10.5983 3.62791 8.39676 4.43411C6.31924 5.1783 4.24172 5.64341 3.59056 5.79845C3.49753 5.82946 3.40451 5.79845 3.40451 5.82946C3.52854 8.15504 2.72234 8.12403 1.66808 8.8062C1.63707 8.83721 1.54404 8.83721 1.54404 8.86822C1.82311 9.55039 2.19521 10.2326 2.28823 11.7829C2.44327 14.5116 2.22621 19.0388 3.34249 21.5194C4.61381 24.3411 8.42777 27.3798 11.3115 28.9923C12.0867 29.4264 13.1409 29.9535 13.513 30.1395C13.8851 29.9535 14.9394 29.4264 15.7146 28.9923C18.5983 27.3798 22.3813 24.3721 23.6836 21.5194C24.7999 19.0388 24.5828 14.5426 24.7378 11.7829C24.8309 10.2326 25.203 9.55039 25.451 8.86822C25.451 8.83721 25.389 8.8062 25.327 8.8062C24.2417 8.12403 23.4665 8.15504 23.5906 5.82946C23.5906 5.79845 23.4975 5.79845 23.4045 5.79845C22.7533 5.67442 20.6758 5.2093 18.5983 4.43411C16.3968 3.62791 14.6913 2.48062 13.482 1.64341ZM13.482 0C12.1177 0.930233 10.2572 2.23256 7.83862 3.10078C5.51304 3.93798 3.21846 4.46512 2.47428 4.62016C2.38125 4.65116 2.25722 4.62016 2.25722 4.65116C2.38125 7.22481 1.51304 7.1938 0.303734 7.96899C0.272726 8 0.179703 8 0.179703 8.06202C0.458773 8.83721 0.892881 9.5814 0.985904 11.3178C1.17195 14.3566 0.923889 19.3798 2.1642 22.1705C3.59056 25.3023 7.83862 28.6822 11.0634 30.4806C11.9316 30.9767 13.1099 31.5349 13.513 31.7519C13.9161 31.5349 15.0944 30.9767 15.9627 30.4806C19.1564 28.6822 23.4045 25.3023 24.8309 22.1395C26.0712 19.3798 25.8541 14.3566 26.0092 11.2868C26.1022 9.55039 26.5363 8.77519 26.8154 8.03101C26.8464 8 26.7223 7.96899 26.6913 7.93799C25.482 7.16279 24.6138 7.22481 24.7378 4.62016C24.7378 4.58915 24.6138 4.58915 24.5208 4.58915C23.7766 4.43411 21.451 3.90698 19.1564 3.06977C16.7068 2.23256 14.8464 0.930233 13.482 0Z" fill="#4D4D4D"/>
<path d="M13.4685 3.26506L13.482 3.25582C14.5673 4.03101 16.0557 5.02326 18.0402 5.76744C19.8696 6.44961 21.6991 6.85271 22.2882 6.97675C22.3502 6.97675 22.4433 6.97675 22.4433 7.00775C22.3655 8.71752 22.8289 8.97721 23.544 9.37801C23.6849 9.45695 23.8355 9.54137 23.9937 9.64341C24.0072 9.65701 24.0268 9.66464 24.0445 9.67154C24.0671 9.68038 24.0867 9.68801 24.0867 9.70543C24.066 9.75458 24.0448 9.80395 24.0235 9.85394C23.7884 10.4032 23.5208 11.0286 23.4355 12.2791C23.4083 12.8105 23.396 13.4183 23.3829 14.0665C23.3363 16.3686 23.2795 19.1814 22.5053 20.8992C21.389 23.4109 18.0092 26.0775 15.4665 27.5039C14.7843 27.907 13.8541 28.3721 13.544 28.5271C13.3736 28.4249 13.016 28.2384 12.6151 28.0294C12.2865 27.858 11.9289 27.6715 11.6216 27.5039V24.9302C11.9937 25.1783 12.3347 25.3953 12.6758 25.5814C12.8154 25.6589 12.9626 25.7364 13.1099 25.814C13.2572 25.8915 13.4045 25.969 13.544 26.0465C13.6836 25.969 13.8309 25.8915 13.9781 25.814C14.1254 25.7364 14.2727 25.6589 14.4123 25.5814C16.3657 24.4651 19.5905 22.0465 20.5208 19.969C21.1036 18.6402 21.1606 16.0143 21.2057 13.9363C21.2206 13.2504 21.2342 12.6242 21.265 12.124C21.296 11.5039 21.358 11.0388 21.482 10.5736C20.8929 10.0465 20.5518 9.42636 20.3968 8.74419C19.3425 8.46512 18.2882 8.15504 17.265 7.78295C15.9006 7.28682 14.6913 6.63566 13.513 5.89147C12.3347 6.63566 11.1254 7.28682 9.76109 7.78295C8.73784 8.15504 7.68357 8.46512 6.62931 8.74419C6.44326 9.42636 6.13318 10.0465 5.54404 10.5736C5.66807 11.0388 5.73008 11.5039 5.76109 12.124C5.78149 12.5661 5.78996 13.1065 5.79926 13.6996C5.83234 15.8109 5.87589 18.5892 6.50528 19.969C6.78222 20.5921 7.25704 21.24 7.83861 21.8711V15.2868H15.8386C15.8653 15.2868 15.8913 15.2869 15.9166 15.2869C16.6569 15.2879 16.8309 15.2881 16.8309 14.4186V13.3643C16.8309 12.7132 16.4588 12.6512 15.9626 12.6512H7.86962V10.6977H16.4898C17.7921 10.6977 19.1254 10.8837 19.0634 12.6512V15.2868C19.0634 16.3411 18.3812 17.0233 17.327 17.0233C16.168 17.0233 15.0014 17.031 13.8309 17.0387C12.6526 17.0465 11.4704 17.0543 10.2882 17.0543V24.0389C10.2986 24.0466 10.3089 24.0543 10.3192 24.062V26.7287C7.99365 25.2403 5.45101 22.9767 4.48977 20.8682C3.74164 19.2083 3.68097 16.526 3.62995 14.2699C3.61331 13.5338 3.59768 12.8431 3.55954 12.2481C3.4823 11.1152 3.23404 10.4954 3.02776 9.98048C2.98561 9.87525 2.94521 9.77439 2.90838 9.67442C2.90838 9.63466 2.94661 9.62039 2.98223 9.6071C3.00216 9.59966 3.02128 9.59253 3.03241 9.5814C3.19058 9.47935 3.34119 9.39494 3.48204 9.316C4.19716 8.9152 4.66051 8.6555 4.5828 6.94574C4.56729 6.93023 4.5828 6.93023 4.6138 6.93023C4.64481 6.93023 4.69132 6.93023 4.73784 6.91473C5.29598 6.7907 7.15644 6.35659 8.9859 5.70543C10.9004 5.02608 12.3844 4.00846 13.4685 3.26506Z" fill="#0094C2"/>
</svg>
