<svg width="40" height="40" viewBox="0 0 40 40" fill="none" xmlns="http://www.w3.org/2000/svg">
<path d="M29.1667 7.5C25.9167 7.5 22.4167 8.16667 20 10C17.5833 8.16667 14.0833 7.5 10.8333 7.5C8.41666 7.5 5.84999 7.86667 3.69999 8.81667C2.48332 9.36667 1.66666 10.55 1.66666 11.9V30.7C1.66666 32.8667 3.69999 34.4667 5.79999 33.9333C7.43332 33.5167 9.16666 33.3333 10.8333 33.3333C13.4333 33.3333 16.2 33.7667 18.4333 34.8667C19.4333 35.3667 20.5667 35.3667 21.55 34.8667C23.7833 33.75 26.55 33.3333 29.15 33.3333C30.8167 33.3333 32.55 33.5167 34.1833 33.9333C36.2833 34.4833 38.3167 32.8833 38.3167 30.7V11.9C38.3167 10.55 37.5 9.36667 36.2833 8.81667C34.15 7.86667 31.5833 7.5 29.1667 7.5ZM35 28.7167C35 29.7667 34.0333 30.5333 33 30.35C31.75 30.1167 30.45 30.0167 29.1667 30.0167C26.3333 30.0167 22.25 31.1 20 32.5167V13.3333C22.25 11.9167 26.3333 10.8333 29.1667 10.8333C30.7 10.8333 32.2167 10.9833 33.6667 11.3C34.4333 11.4667 35 12.15 35 12.9333V28.7167Z" fill="white"/>
<path d="M23.3 18.3501C22.7667 18.3501 22.2834 18.0167 22.1167 17.4834C21.9 16.8334 22.2667 16.1168 22.9167 15.9168C25.4834 15.0834 28.8 14.8168 31.85 15.1668C32.5334 15.2501 33.0334 15.8668 32.95 16.5501C32.8667 17.2334 32.25 17.7334 31.5667 17.6501C28.8667 17.3334 25.9167 17.5834 23.6834 18.3001C23.55 18.3167 23.4167 18.3501 23.3 18.3501Z" fill="white"/>
<path d="M23.3 22.7834C22.7667 22.7834 22.2834 22.4501 22.1167 21.9168C21.9 21.2668 22.2667 20.5501 22.9167 20.3501C25.4667 19.5168 28.8 19.2501 31.85 19.6001C32.5334 19.6834 33.0334 20.3001 32.95 20.9834C32.8667 21.6668 32.25 22.1668 31.5667 22.0834C28.8667 21.7668 25.9167 22.0168 23.6834 22.7334C23.55 22.7668 23.4167 22.7834 23.3 22.7834Z" fill="white"/>
<path d="M23.3 27.2168C22.7667 27.2168 22.2834 26.8835 22.1167 26.3501C21.9 25.7001 22.2667 24.9835 22.9167 24.7835C25.4667 23.9501 28.8 23.6835 31.85 24.0335C32.5334 24.1168 33.0334 24.7335 32.95 25.4168C32.8667 26.1001 32.25 26.5835 31.5667 26.5168C28.8667 26.2001 25.9167 26.4501 23.6834 27.1668C23.55 27.2001 23.4167 27.2168 23.3 27.2168Z" fill="white"/>
</svg>
